%TF.GenerationSoftware,Altium Limited,Altium Designer,22.8.2 (66)*%
G04 Layer_Color=16711935*
%FSLAX45Y45*%
%MOMM*%
%TF.SameCoordinates,C69CFF7D-580E-4D1C-BBFF-10AAE48A081B*%
%TF.FilePolarity,Negative*%
%TF.FileFunction,Soldermask,Bot*%
%TF.Part,Single*%
G01*
G75*
%TA.AperFunction,SMDPad,CuDef*%
%ADD37R,1.87407X0.54213*%
G04:AMPARAMS|DCode=38|XSize=1.87407mm|YSize=0.54213mm|CornerRadius=0.27107mm|HoleSize=0mm|Usage=FLASHONLY|Rotation=180.000|XOffset=0mm|YOffset=0mm|HoleType=Round|Shape=RoundedRectangle|*
%AMROUNDEDRECTD38*
21,1,1.87407,0.00000,0,0,180.0*
21,1,1.33193,0.54213,0,0,180.0*
1,1,0.54213,-0.66597,0.00000*
1,1,0.54213,0.66597,0.00000*
1,1,0.54213,0.66597,0.00000*
1,1,0.54213,-0.66597,0.00000*
%
%ADD38ROUNDEDRECTD38*%
%ADD39R,7.65000X15.15000*%
%ADD40R,1.85000X1.15000*%
%ADD41R,1.55000X1.85000*%
%TA.AperFunction,ComponentPad*%
%ADD42C,1.65000*%
%ADD43R,1.65000X1.65000*%
%ADD44O,3.15000X2.05000*%
%ADD45C,5.35000*%
%TA.AperFunction,ViaPad*%
%ADD46C,5.15000*%
%TA.AperFunction,ComponentPad*%
%ADD47R,1.65000X1.65000*%
%TA.AperFunction,ViaPad*%
%ADD48C,1.15000*%
%ADD49C,0.75000*%
D37*
X231607Y190500D02*
D03*
D38*
Y63500D02*
D03*
Y-63500D02*
D03*
Y-190500D02*
D03*
X-231607D02*
D03*
Y-63500D02*
D03*
Y63500D02*
D03*
Y190500D02*
D03*
D39*
X1120000Y25000D02*
D03*
D40*
X-505000Y265000D02*
D03*
Y75000D02*
D03*
X-755000Y265000D02*
D03*
Y75000D02*
D03*
D41*
X94300Y480000D02*
D03*
X-134300D02*
D03*
X109300Y-415000D02*
D03*
X-119300D02*
D03*
D42*
X-921000Y1770000D02*
D03*
X-667000D02*
D03*
X-413000D02*
D03*
X-159000D02*
D03*
X95000D02*
D03*
X349000D02*
D03*
X603000D02*
D03*
X1930000Y353000D02*
D03*
Y99000D02*
D03*
Y-155000D02*
D03*
D43*
X857000Y1770000D02*
D03*
D44*
X-1900000Y675000D02*
D03*
Y-675000D02*
D03*
D45*
X-1300000Y360000D02*
D03*
Y-360000D02*
D03*
D46*
X1550000Y1550000D02*
D03*
X-1550000D02*
D03*
X1550000Y-1550000D02*
D03*
X-1550000D02*
D03*
D47*
X1930000Y-409000D02*
D03*
D48*
X172667Y-1212775D02*
D03*
X71708Y-1361489D02*
D03*
X252667Y-1367775D02*
D03*
X-1233715Y-1063526D02*
D03*
X-1334674Y-1212241D02*
D03*
X-1153715Y-1218527D02*
D03*
X-1859412Y1244088D02*
D03*
X-1960370Y1095374D02*
D03*
X-1779411Y1089088D02*
D03*
X750000Y-1225000D02*
D03*
X649042Y-1373715D02*
D03*
X830000Y-1380001D02*
D03*
X1700000Y235000D02*
D03*
X1685000Y-250000D02*
D03*
X1580000Y-390000D02*
D03*
X-105000Y-1070000D02*
D03*
X1429612Y959247D02*
D03*
X-322173Y670471D02*
D03*
X-155000Y1140000D02*
D03*
X1639473Y-580627D02*
D03*
X1695000Y415000D02*
D03*
X-185000Y800000D02*
D03*
X660000Y-75000D02*
D03*
X-600000Y1150000D02*
D03*
X-750000Y1015000D02*
D03*
X-785000Y1200000D02*
D03*
X1904037Y1976155D02*
D03*
X1819037Y1861155D02*
D03*
X1979951Y1844141D02*
D03*
X-1217243Y1934950D02*
D03*
X-1302244Y1819950D02*
D03*
X-1141329Y1802935D02*
D03*
X-1248147Y1136603D02*
D03*
X-1333147Y1021603D02*
D03*
X-1172233Y1004588D02*
D03*
X-1965000Y-1645000D02*
D03*
X-1995000Y-1420000D02*
D03*
X-1830000Y-1795000D02*
D03*
X-1815000Y75000D02*
D03*
X-1900000Y-40000D02*
D03*
X-1739086Y-57015D02*
D03*
X1690000Y-895000D02*
D03*
X1605000Y-1010000D02*
D03*
X1765914Y-1027015D02*
D03*
X-735000Y-1415000D02*
D03*
X-820000Y-1530000D02*
D03*
X-659086Y-1547015D02*
D03*
X46059Y-1749076D02*
D03*
X-106762Y-1754736D02*
D03*
X-16202Y-1613235D02*
D03*
X900000Y-1860000D02*
D03*
X719041Y-1853714D02*
D03*
X820000Y-1705000D02*
D03*
X836926Y1205219D02*
D03*
X1700000Y725000D02*
D03*
X-745000Y590000D02*
D03*
X815000Y1040000D02*
D03*
X820000Y570000D02*
D03*
X255000Y805000D02*
D03*
X665000Y285000D02*
D03*
X-380000Y450000D02*
D03*
D49*
X1007500Y-212500D02*
D03*
Y227500D02*
D03*
X1117500D02*
D03*
X1227500D02*
D03*
X1007500Y117500D02*
D03*
X1117500D02*
D03*
X1227500D02*
D03*
X1007500Y7500D02*
D03*
X1117500D02*
D03*
X1227500D02*
D03*
X1007500Y-102500D02*
D03*
X1117500D02*
D03*
X1227500D02*
D03*
X1117500Y-212500D02*
D03*
X1227500D02*
D03*
%TF.MD5,e2ab758fff9ed6b8d60429daf19ad639*%
M02*
