%TF.GenerationSoftware,Altium Limited,Altium Designer,22.8.2 (66)*%
G04 Layer_Color=128*
%FSLAX45Y45*%
%MOMM*%
%TF.SameCoordinates,C69CFF7D-580E-4D1C-BBFF-10AAE48A081B*%
%TF.FilePolarity,Positive*%
%TF.FileFunction,Drillmap*%
%TF.Part,Single*%
G01*
G75*
%TA.AperFunction,NonConductor*%
%ADD68C,0.12700*%
D68*
X-966000Y1770000D02*
X-876000D01*
X-921000Y1725000D02*
Y1815000D01*
X-712000Y1770000D02*
X-622000D01*
X-667000Y1725000D02*
Y1815000D01*
X-458000Y1770000D02*
X-368000D01*
X-413000Y1725000D02*
Y1815000D01*
X-204000Y1770000D02*
X-114000D01*
X-159000Y1725000D02*
Y1815000D01*
X50000Y1770000D02*
X140000D01*
X95000Y1725000D02*
Y1815000D01*
X304000Y1770000D02*
X394000D01*
X349000Y1725000D02*
Y1815000D01*
X558000Y1770000D02*
X648000D01*
X603000Y1725000D02*
Y1815000D01*
X812000Y1770000D02*
X902000D01*
X857000Y1725000D02*
Y1815000D01*
X-1945000Y675000D02*
X-1855000D01*
X-1900000Y630000D02*
Y720000D01*
X-1945000Y-675000D02*
X-1855000D01*
X-1900000Y-720000D02*
Y-630000D01*
X-1445000Y360000D02*
X-1155000D01*
X-1300000Y215000D02*
Y505000D01*
X-1445000Y-360000D02*
X-1155000D01*
X-1300000Y-505000D02*
Y-215000D01*
X1390000Y1550000D02*
X1710000D01*
X1550000Y1390000D02*
Y1710000D01*
X-1710000Y1550000D02*
X-1390000D01*
X-1550000Y1390000D02*
Y1710000D01*
X1390000Y-1550000D02*
X1710000D01*
X1550000Y-1710000D02*
Y-1390000D01*
X-1710000Y-1550000D02*
X-1390000D01*
X-1550000Y-1710000D02*
Y-1390000D01*
X1885000Y353000D02*
X1975000D01*
X1930000Y308000D02*
Y398000D01*
X1885000Y99000D02*
X1975000D01*
X1930000Y54000D02*
Y144000D01*
X1885000Y-155000D02*
X1975000D01*
X1930000Y-200000D02*
Y-110000D01*
X1885000Y-409000D02*
X1975000D01*
X1930000Y-454000D02*
Y-364000D01*
X147667Y-1212775D02*
X197667D01*
X172667Y-1237775D02*
Y-1187775D01*
X46708Y-1361489D02*
X96708D01*
X71708Y-1386489D02*
Y-1336489D01*
X227667Y-1367775D02*
X277667D01*
X252667Y-1392775D02*
Y-1342775D01*
X-1258715Y-1063526D02*
X-1208715D01*
X-1233715Y-1088526D02*
Y-1038526D01*
X-1359674Y-1212241D02*
X-1309674D01*
X-1334674Y-1237241D02*
Y-1187241D01*
X-1178715Y-1218527D02*
X-1128715D01*
X-1153715Y-1243527D02*
Y-1193527D01*
X-1884412Y1244088D02*
X-1834412D01*
X-1859412Y1219088D02*
Y1269088D01*
X-1985370Y1095374D02*
X-1935370D01*
X-1960370Y1070374D02*
Y1120374D01*
X-1804411Y1089088D02*
X-1754412D01*
X-1779411Y1064088D02*
Y1114088D01*
X725000Y-1225000D02*
X775000D01*
X750000Y-1250000D02*
Y-1200000D01*
X624042Y-1373715D02*
X674042D01*
X649042Y-1398714D02*
Y-1348715D01*
X805000Y-1380001D02*
X855000D01*
X830000Y-1405000D02*
Y-1355001D01*
X1675000Y235000D02*
X1725000D01*
X1700000Y210000D02*
Y260000D01*
X1660000Y-250000D02*
X1710000D01*
X1685000Y-275000D02*
Y-225000D01*
X1555000Y-390000D02*
X1605000D01*
X1580000Y-415000D02*
Y-365000D01*
X-130000Y-1070000D02*
X-80000D01*
X-105000Y-1095000D02*
Y-1045000D01*
X1404612Y959247D02*
X1454612D01*
X1429612Y934247D02*
Y984247D01*
X-347173Y670471D02*
X-297173D01*
X-322173Y645471D02*
Y695471D01*
X-180000Y1140000D02*
X-130000D01*
X-155000Y1115000D02*
Y1165000D01*
X1614473Y-580627D02*
X1664473D01*
X1639473Y-605627D02*
Y-555627D01*
X1670000Y415000D02*
X1720000D01*
X1695000Y390000D02*
Y440000D01*
X-210000Y800000D02*
X-160000D01*
X-185000Y775000D02*
Y825000D01*
X635000Y-75000D02*
X685000D01*
X660000Y-100000D02*
Y-50000D01*
X-625000Y1150000D02*
X-575000D01*
X-600000Y1125000D02*
Y1175000D01*
X-775000Y1015000D02*
X-725000D01*
X-750000Y990000D02*
Y1040000D01*
X-810000Y1200000D02*
X-760000D01*
X-785000Y1175000D02*
Y1225000D01*
X1879037Y1976155D02*
X1929037D01*
X1904037Y1951155D02*
Y2001155D01*
X1794037Y1861155D02*
X1844037D01*
X1819037Y1836155D02*
Y1886155D01*
X1954951Y1844141D02*
X2004951D01*
X1979951Y1819141D02*
Y1869141D01*
X-1242243Y1934950D02*
X-1192243D01*
X-1217243Y1909950D02*
Y1959950D01*
X-1327243Y1819950D02*
X-1277244D01*
X-1302244Y1794950D02*
Y1844950D01*
X-1166329Y1802935D02*
X-1116329D01*
X-1141329Y1777935D02*
Y1827935D01*
X-1273147Y1136603D02*
X-1223147D01*
X-1248147Y1111603D02*
Y1161603D01*
X-1358147Y1021603D02*
X-1308147D01*
X-1333147Y996603D02*
Y1046603D01*
X-1197233Y1004588D02*
X-1147233D01*
X-1172233Y979588D02*
Y1029588D01*
X-1990000Y-1645000D02*
X-1940000D01*
X-1965000Y-1670000D02*
Y-1620000D01*
X-2020000Y-1420000D02*
X-1970000D01*
X-1995000Y-1445000D02*
Y-1395000D01*
X-1855000Y-1795000D02*
X-1805000D01*
X-1830000Y-1820000D02*
Y-1770000D01*
X-1840000Y75000D02*
X-1790000D01*
X-1815000Y50000D02*
Y100000D01*
X-1925000Y-40000D02*
X-1875000D01*
X-1900000Y-65000D02*
Y-15000D01*
X-1764086Y-57015D02*
X-1714086D01*
X-1739086Y-82015D02*
Y-32015D01*
X1665000Y-895000D02*
X1715000D01*
X1690000Y-920000D02*
Y-870001D01*
X1580000Y-1010000D02*
X1630000D01*
X1605000Y-1035000D02*
Y-985000D01*
X1740914Y-1027015D02*
X1790914D01*
X1765914Y-1052015D02*
Y-1002015D01*
X-760000Y-1415000D02*
X-710000D01*
X-735000Y-1440000D02*
Y-1390001D01*
X-845000Y-1530000D02*
X-795000D01*
X-820000Y-1555000D02*
Y-1505000D01*
X-684086Y-1547015D02*
X-634086D01*
X-659086Y-1572015D02*
Y-1522015D01*
X21059Y-1749076D02*
X71059D01*
X46059Y-1774076D02*
Y-1724076D01*
X-131762Y-1754736D02*
X-81762D01*
X-106762Y-1779736D02*
Y-1729736D01*
X-41202Y-1613235D02*
X8798D01*
X-16202Y-1638235D02*
Y-1588235D01*
X875000Y-1860000D02*
X925000D01*
X900000Y-1885000D02*
Y-1835000D01*
X694042Y-1853714D02*
X744041D01*
X719041Y-1878714D02*
Y-1828714D01*
X795000Y-1705000D02*
X845000D01*
X820000Y-1730000D02*
Y-1680000D01*
X811926Y1205219D02*
X861926D01*
X836926Y1180219D02*
Y1230219D01*
X1675000Y725000D02*
X1725000D01*
X1700000Y700000D02*
Y750000D01*
X-770000Y590000D02*
X-720000D01*
X-745000Y565000D02*
Y615000D01*
X790000Y1040000D02*
X840000D01*
X815000Y1015000D02*
Y1065000D01*
X795000Y570000D02*
X845000D01*
X820000Y545000D02*
Y595000D01*
X230000Y805000D02*
X280000D01*
X255000Y780000D02*
Y830000D01*
X640000Y285000D02*
X690000D01*
X665000Y260000D02*
Y310000D01*
X-405000Y450000D02*
X-355000D01*
X-380000Y425000D02*
Y475000D01*
X992500Y-212500D02*
X1022500D01*
X1007500Y-227500D02*
Y-197500D01*
X992500Y227500D02*
X1022500D01*
X1007500Y212500D02*
Y242500D01*
X1102500Y227500D02*
X1132500D01*
X1117500Y212500D02*
Y242500D01*
X1212500Y227500D02*
X1242500D01*
X1227500Y212500D02*
Y242500D01*
X992500Y117500D02*
X1022500D01*
X1007500Y102500D02*
Y132500D01*
X1102500Y117500D02*
X1132500D01*
X1117500Y102500D02*
Y132500D01*
X1212500Y117500D02*
X1242500D01*
X1227500Y102500D02*
Y132500D01*
X992500Y7500D02*
X1022500D01*
X1007500Y-7500D02*
Y22500D01*
X1102500Y7500D02*
X1132500D01*
X1117500Y-7500D02*
Y22500D01*
X1212500Y7500D02*
X1242500D01*
X1227500Y-7500D02*
Y22500D01*
X992500Y-102500D02*
X1022500D01*
X1007500Y-117500D02*
Y-87500D01*
X1102500Y-102500D02*
X1132500D01*
X1117500Y-117500D02*
Y-87500D01*
X1212500Y-102500D02*
X1242500D01*
X1227500Y-117500D02*
Y-87500D01*
X1102500Y-212500D02*
X1132500D01*
X1117500Y-227500D02*
Y-197500D01*
X1212500Y-212500D02*
X1242500D01*
X1227500Y-227500D02*
Y-197500D01*
%TF.MD5,a34130c9ab635936332341a6ee01172b*%
M02*
