G04*
G04 #@! TF.GenerationSoftware,Altium Limited,Altium Designer,22.8.2 (66)*
G04*
G04 Layer_Color=32896*
%FSLAX44Y44*%
%MOMM*%
G71*
G04*
G04 #@! TF.SameCoordinates,8B29F10C-7C34-4062-88D6-BD73F32157BC*
G04*
G04*
G04 #@! TF.FilePolarity,Positive*
G04*
G01*
G75*
%ADD10C,0.2500*%
%ADD11C,0.2000*%
D10*
X38781Y19050D02*
G03*
X38781Y19050I-1250J0D01*
G01*
D11*
X-8790Y24500D02*
X8790D01*
X-8790Y-24500D02*
Y24500D01*
Y-24500D02*
X8790D01*
Y24500D01*
X40331Y38998D02*
Y30668D01*
X38665Y29002D01*
X35332D01*
X33666Y30668D01*
Y38998D01*
X30334Y37332D02*
X28668Y38998D01*
X25336D01*
X23669Y37332D01*
Y30668D01*
X25336Y29002D01*
X28668D01*
X30334Y30668D01*
Y37332D01*
X-45335Y-11998D02*
Y-2002D01*
X-50334D01*
X-52000Y-3668D01*
Y-7000D01*
X-50334Y-8666D01*
X-45335D01*
X-48668D02*
X-52000Y-11998D01*
X-55332D02*
X-58664D01*
X-56998D01*
Y-2002D01*
X-55332Y-3668D01*
X-67669Y37002D02*
Y46998D01*
X-72668D01*
X-74334Y45332D01*
Y42000D01*
X-72668Y40334D01*
X-67669D01*
X-71002D02*
X-74334Y37002D01*
X-77666Y45332D02*
X-79332Y46998D01*
X-82664D01*
X-84331Y45332D01*
Y38668D01*
X-82664Y37002D01*
X-79332D01*
X-77666Y38668D01*
Y45332D01*
X1666Y-58668D02*
X3332Y-57002D01*
X6665D01*
X8331Y-58668D01*
Y-65332D01*
X6665Y-66998D01*
X3332D01*
X1666Y-65332D01*
X-1666Y-58668D02*
X-3332Y-57002D01*
X-6665D01*
X-8331Y-58668D01*
Y-60334D01*
X-6665Y-62000D01*
X-4998D01*
X-6665D01*
X-8331Y-63666D01*
Y-65332D01*
X-6665Y-66998D01*
X-3332D01*
X-1666Y-65332D01*
X166Y70332D02*
X1832Y71998D01*
X5164D01*
X6831Y70332D01*
Y63668D01*
X5164Y62002D01*
X1832D01*
X166Y63668D01*
X-9831Y62002D02*
X-3166D01*
X-9831Y68666D01*
Y70332D01*
X-8164Y71998D01*
X-4832D01*
X-3166Y70332D01*
M02*
