G04*
G04 #@! TF.GenerationSoftware,Altium Limited,Altium Designer,22.8.2 (66)*
G04*
G04 Layer_Color=65535*
%FSLAX44Y44*%
%MOMM*%
G71*
G04*
G04 #@! TF.SameCoordinates,8B29F10C-7C34-4062-88D6-BD73F32157BC*
G04*
G04*
G04 #@! TF.FilePolarity,Positive*
G04*
G01*
G75*
%ADD10C,0.2500*%
%ADD11C,0.2000*%
%ADD12C,0.2540*%
%ADD13C,0.3000*%
D10*
X22250Y40500D02*
G03*
X22250Y40500I-1250J0D01*
G01*
X141750Y-48750D02*
G03*
X141750Y-48750I-1250J0D01*
G01*
X98500Y121500D02*
G03*
X98500Y121500I-1250J0D01*
G01*
D11*
X-97500Y150500D02*
X-87000D01*
X-94000Y147500D02*
X-90500D01*
X-101000Y154000D02*
X-83000D01*
X30750Y-22750D02*
Y12750D01*
X-34750Y-22750D02*
X30750D01*
X-34750D02*
Y12750D01*
X30750D01*
X-104800Y164300D02*
X98400D01*
Y189700D01*
X-104800D02*
X98400D01*
X-104800Y164300D02*
Y189700D01*
X-59750Y-119500D02*
X-19500D01*
Y-103000D01*
Y-81000D02*
Y-64500D01*
X-59750D02*
X-19500D01*
X-69500Y-109750D02*
Y-103000D01*
Y-109750D02*
X-59750Y-119500D01*
X-69500Y-74250D02*
X-59750Y-64500D01*
X-69500Y-81000D02*
Y-74250D01*
X93250Y49750D02*
X130250D01*
X93250Y-48250D02*
X130250D01*
X114500Y89000D02*
Y118000D01*
X106500Y89000D02*
Y118000D01*
Y89000D02*
X114500D01*
X106500Y118000D02*
X114500D01*
X180300Y-53600D02*
X205700D01*
X180300D02*
Y48000D01*
X205700Y-53600D02*
Y48000D01*
X180300D02*
X205700D01*
X102500Y181497D02*
X105832D01*
X104166D01*
Y171500D01*
X102500D01*
X105832D01*
X110831D02*
X117495Y178165D01*
X125826Y181497D02*
X122494D01*
X120827Y179831D01*
Y173166D01*
X122494Y171500D01*
X125826D01*
X127492Y173166D01*
Y179831D01*
X125826Y181497D01*
X172500Y-197335D02*
X175832Y-204000D01*
X179165Y-197335D01*
X182497Y-195669D02*
X184163Y-194003D01*
X187495D01*
X189161Y-195669D01*
Y-202334D01*
X187495Y-204000D01*
X184163D01*
X182497Y-202334D01*
Y-195669D01*
X192493Y-204000D02*
Y-202334D01*
X194160D01*
Y-204000D01*
X192493D01*
X200824D02*
X204156D01*
X202490D01*
Y-194003D01*
X200824Y-195669D01*
X-201000Y-203500D02*
Y-193503D01*
X-194335Y-203500D01*
Y-193503D01*
X-184339D02*
X-191003D01*
Y-203500D01*
X-184339D01*
X-191003Y-198502D02*
X-187671D01*
X-181006Y-203500D02*
Y-193503D01*
X-177674Y-196835D01*
X-174342Y-193503D01*
Y-203500D01*
X-171010D02*
Y-196835D01*
X-167677Y-193503D01*
X-164345Y-196835D01*
Y-203500D01*
Y-198502D01*
X-171010D01*
X-161013D02*
X-154348D01*
X-151016Y-203500D02*
X-147684D01*
X-149350D01*
Y-193503D01*
X-151016Y-195169D01*
X-142685Y-193503D02*
X-136021D01*
Y-195169D01*
X-142685Y-201834D01*
Y-203500D01*
X-116027Y-195169D02*
X-117694Y-193503D01*
X-121026D01*
X-122692Y-195169D01*
Y-201834D01*
X-121026Y-203500D01*
X-117694D01*
X-116027Y-201834D01*
X-111029Y-195169D02*
Y-196835D01*
X-112695D01*
X-109363D01*
X-111029D01*
Y-201834D01*
X-109363Y-203500D01*
X-104365Y-196835D02*
Y-203500D01*
Y-200168D01*
X-102698Y-198502D01*
X-101032Y-196835D01*
X-99366D01*
X-94368Y-203500D02*
X-91035D01*
X-92702D01*
Y-193503D01*
X-94368D01*
X-76040Y-203500D02*
Y-193503D01*
X-72708Y-196835D01*
X-69376Y-193503D01*
Y-203500D01*
X-64377D02*
X-61045D01*
X-59379Y-201834D01*
Y-198502D01*
X-61045Y-196835D01*
X-64377D01*
X-66044Y-198502D01*
Y-201834D01*
X-64377Y-203500D01*
X-49382Y-193503D02*
Y-203500D01*
X-54381D01*
X-56047Y-201834D01*
Y-198502D01*
X-54381Y-196835D01*
X-49382D01*
X-46050D02*
Y-201834D01*
X-44384Y-203500D01*
X-39385D01*
Y-196835D01*
X-36053Y-203500D02*
X-32721D01*
X-34387D01*
Y-193503D01*
X-36053D01*
X-22724Y-203500D02*
X-26056D01*
X-27722Y-201834D01*
Y-198502D01*
X-26056Y-196835D01*
X-22724D01*
X-21058Y-198502D01*
Y-200168D01*
X-27722D01*
X-204000Y203997D02*
Y202331D01*
X-200668Y198998D01*
X-197335Y202331D01*
Y203997D01*
X-200668Y198998D02*
Y194000D01*
X-187339Y203997D02*
X-194003D01*
Y198998D01*
X-190671D01*
X-194003D01*
Y194000D01*
X184500Y-68000D02*
Y-61336D01*
X187832Y-58003D01*
X191164Y-61336D01*
Y-68000D01*
Y-63002D01*
X184500D01*
X201161Y-68000D02*
X194497D01*
X201161Y-61336D01*
Y-59669D01*
X199495Y-58003D01*
X196163D01*
X194497Y-59669D01*
X156500Y-18000D02*
Y-11336D01*
X159832Y-8003D01*
X163165Y-11336D01*
Y-18000D01*
Y-13002D01*
X156500D01*
X166497Y-18000D02*
X169829D01*
X168163D01*
Y-8003D01*
X166497Y-9669D01*
X156000Y14997D02*
Y5000D01*
X160998D01*
X162665Y6666D01*
Y8332D01*
X160998Y9998D01*
X156000D01*
X160998D01*
X162665Y11665D01*
Y13331D01*
X160998Y14997D01*
X156000D01*
X165997Y5000D02*
X169329D01*
X167663D01*
Y14997D01*
X165997Y13331D01*
X184500Y63497D02*
Y53500D01*
X189498D01*
X191164Y55166D01*
Y56832D01*
X189498Y58498D01*
X184500D01*
X189498D01*
X191164Y60164D01*
Y61831D01*
X189498Y63497D01*
X184500D01*
X201161Y53500D02*
X194497D01*
X201161Y60164D01*
Y61831D01*
X199495Y63497D01*
X196163D01*
X194497Y61831D01*
X-204500Y-88503D02*
X-197836Y-98500D01*
Y-88503D02*
X-204500Y-98500D01*
X-194503Y-88503D02*
X-187839D01*
X-191171D01*
Y-98500D01*
X-177842Y-88503D02*
X-181174Y-90169D01*
X-184506Y-93502D01*
Y-96834D01*
X-182840Y-98500D01*
X-179508D01*
X-177842Y-96834D01*
Y-95168D01*
X-179508Y-93502D01*
X-184506D01*
X-174510Y-90169D02*
X-172843Y-88503D01*
X-169511D01*
X-167845Y-90169D01*
Y-96834D01*
X-169511Y-98500D01*
X-172843D01*
X-174510Y-96834D01*
Y-90169D01*
X86002Y133500D02*
Y140164D01*
X82669Y136832D02*
X89334D01*
X81003Y150161D02*
Y143497D01*
X86002D01*
X84335Y146829D01*
Y148495D01*
X86002Y150161D01*
X89334D01*
X91000Y148495D01*
Y145163D01*
X89334Y143497D01*
X81003Y153493D02*
X87668D01*
X91000Y156826D01*
X87668Y160158D01*
X81003D01*
X55337Y135000D02*
Y138332D01*
Y136666D01*
X65334D01*
Y135000D01*
Y138332D01*
X67000Y143331D02*
Y149995D01*
X57003Y159992D02*
X55337Y158326D01*
Y154993D01*
X57003Y153327D01*
X58669D01*
X60335Y154993D01*
Y158326D01*
X62002Y159992D01*
X63668D01*
X65334Y158326D01*
Y154993D01*
X63668Y153327D01*
X30503Y133500D02*
X40500D01*
Y138498D01*
X38834Y140164D01*
X32169D01*
X30503Y138498D01*
Y133500D01*
Y143497D02*
Y146829D01*
Y145163D01*
X40500D01*
Y143497D01*
Y146829D01*
Y151827D02*
X30503D01*
Y156826D01*
X32169Y158492D01*
X35502D01*
X37168Y156826D01*
Y151827D01*
Y155160D02*
X40500Y158492D01*
X14500Y133000D02*
X4503D01*
Y137998D01*
X6169Y139664D01*
X9502D01*
X11168Y137998D01*
Y133000D01*
X4503Y147995D02*
Y144663D01*
X6169Y142997D01*
X12834D01*
X14500Y144663D01*
Y147995D01*
X12834Y149661D01*
X6169D01*
X4503Y147995D01*
X6169Y159658D02*
X4503Y157992D01*
Y154660D01*
X6169Y152993D01*
X7836D01*
X9502Y154660D01*
Y157992D01*
X11168Y159658D01*
X12834D01*
X14500Y157992D01*
Y154660D01*
X12834Y152993D01*
X-19331Y139664D02*
X-20997Y137998D01*
Y134666D01*
X-19331Y133000D01*
X-17665D01*
X-15998Y134666D01*
Y137998D01*
X-14332Y139664D01*
X-12666D01*
X-11000Y137998D01*
Y134666D01*
X-12666Y133000D01*
X-20997Y142997D02*
Y149661D01*
Y146329D01*
X-11000D01*
Y152993D02*
X-20997D01*
Y157992D01*
X-19331Y159658D01*
X-15998D01*
X-14332Y157992D01*
Y152993D01*
X-43331Y140665D02*
X-44997Y138998D01*
Y135666D01*
X-43331Y134000D01*
X-41665D01*
X-39998Y135666D01*
Y138998D01*
X-38332Y140665D01*
X-36666D01*
X-35000Y138998D01*
Y135666D01*
X-36666Y134000D01*
X-43331Y150661D02*
X-44997Y148995D01*
Y145663D01*
X-43331Y143997D01*
X-36666D01*
X-35000Y145663D01*
Y148995D01*
X-36666Y150661D01*
X-44997Y153994D02*
X-35000D01*
Y160658D01*
X-70331Y140164D02*
X-71997Y138498D01*
Y135166D01*
X-70331Y133500D01*
X-68665D01*
X-66998Y135166D01*
Y138498D01*
X-65332Y140164D01*
X-63666D01*
X-62000Y138498D01*
Y135166D01*
X-63666Y133500D01*
X-71997Y143497D02*
X-62000D01*
Y148495D01*
X-63666Y150161D01*
X-70331D01*
X-71997Y148495D01*
Y143497D01*
X-62000Y153493D02*
X-68665D01*
X-71997Y156826D01*
X-68665Y160158D01*
X-62000D01*
X-66998D01*
Y153493D01*
X-165000Y32668D02*
Y39332D01*
X-165000Y-39332D02*
Y-32668D01*
X-168332Y-36000D02*
X-161668D01*
X185669Y129832D02*
X184002Y131498D01*
X180670D01*
X179004Y129832D01*
Y123168D01*
X180670Y121502D01*
X184002D01*
X185669Y123168D01*
X189001Y121502D02*
X192333D01*
X190667D01*
Y131498D01*
X189001Y129832D01*
X197332D02*
X198998Y131498D01*
X202330D01*
X203996Y129832D01*
Y123168D01*
X202330Y121502D01*
X198998D01*
X197332Y123168D01*
Y129832D01*
X107169Y134498D02*
Y126168D01*
X108835Y124502D01*
X112168D01*
X113834Y126168D01*
Y134498D01*
X117166Y132832D02*
X118832Y134498D01*
X122164D01*
X123831Y132832D01*
Y131166D01*
X122164Y129500D01*
X120498D01*
X122164D01*
X123831Y127834D01*
Y126168D01*
X122164Y124502D01*
X118832D01*
X117166Y126168D01*
X-41831Y-40002D02*
Y-48332D01*
X-40164Y-49998D01*
X-36832D01*
X-35166Y-48332D01*
Y-40002D01*
X-25169Y-49998D02*
X-31834D01*
X-25169Y-43334D01*
Y-41668D01*
X-26835Y-40002D01*
X-30168D01*
X-31834Y-41668D01*
X138336Y62498D02*
Y54168D01*
X140002Y52502D01*
X143334D01*
X145000Y54168D01*
Y62498D01*
X148332Y52502D02*
X151664D01*
X149998D01*
Y62498D01*
X148332Y60832D01*
X71669Y65502D02*
Y75498D01*
X76668D01*
X78334Y73832D01*
Y70500D01*
X76668Y68834D01*
X71669D01*
X75002D02*
X78334Y65502D01*
X81666Y73832D02*
X83332Y75498D01*
X86664D01*
X88331Y73832D01*
Y72166D01*
X86664Y70500D01*
X84998D01*
X86664D01*
X88331Y68834D01*
Y67168D01*
X86664Y65502D01*
X83332D01*
X81666Y67168D01*
X20169Y-60498D02*
Y-50502D01*
X25168D01*
X26834Y-52168D01*
Y-55500D01*
X25168Y-57166D01*
X20169D01*
X23502D02*
X26834Y-60498D01*
X36831D02*
X30166D01*
X36831Y-53834D01*
Y-52168D01*
X35164Y-50502D01*
X31832D01*
X30166Y-52168D01*
X-64166Y45832D02*
X-65832Y47498D01*
X-69165D01*
X-70831Y45832D01*
Y39168D01*
X-69165Y37502D01*
X-65832D01*
X-64166Y39168D01*
X-60834D02*
X-59168Y37502D01*
X-55835D01*
X-54169Y39168D01*
Y45832D01*
X-55835Y47498D01*
X-59168D01*
X-60834Y45832D01*
Y44166D01*
X-59168Y42500D01*
X-54169D01*
X28334Y66332D02*
X26668Y67998D01*
X23335D01*
X21669Y66332D01*
Y59668D01*
X23335Y58002D01*
X26668D01*
X28334Y59668D01*
X31666Y66332D02*
X33332Y67998D01*
X36665D01*
X38331Y66332D01*
Y64666D01*
X36665Y63000D01*
X38331Y61334D01*
Y59668D01*
X36665Y58002D01*
X33332D01*
X31666Y59668D01*
Y61334D01*
X33332Y63000D01*
X31666Y64666D01*
Y66332D01*
X33332Y63000D02*
X36665D01*
X56334Y-47168D02*
X54668Y-45502D01*
X51336D01*
X49669Y-47168D01*
Y-53832D01*
X51336Y-55498D01*
X54668D01*
X56334Y-53832D01*
X59666Y-45502D02*
X66331D01*
Y-47168D01*
X59666Y-53832D01*
Y-55498D01*
X112334Y-81668D02*
X110668Y-80002D01*
X107336D01*
X105669Y-81668D01*
Y-88332D01*
X107336Y-89998D01*
X110668D01*
X112334Y-88332D01*
X122331Y-80002D02*
X118998Y-81668D01*
X115666Y-85000D01*
Y-88332D01*
X117332Y-89998D01*
X120665D01*
X122331Y-88332D01*
Y-86666D01*
X120665Y-85000D01*
X115666D01*
X-65166Y832D02*
X-66832Y2498D01*
X-70164D01*
X-71831Y832D01*
Y-5832D01*
X-70164Y-7498D01*
X-66832D01*
X-65166Y-5832D01*
X-55169Y2498D02*
X-61834D01*
Y-2500D01*
X-58502Y-834D01*
X-56835D01*
X-55169Y-2500D01*
Y-5832D01*
X-56835Y-7498D01*
X-60168D01*
X-61834Y-5832D01*
X-3166Y82832D02*
X-4832Y84498D01*
X-8164D01*
X-9831Y82832D01*
Y76168D01*
X-8164Y74502D01*
X-4832D01*
X-3166Y76168D01*
X5164Y74502D02*
Y84498D01*
X166Y79500D01*
X6831D01*
X51500Y25832D02*
X49834Y27498D01*
X46502D01*
X44836Y25832D01*
Y19168D01*
X46502Y17502D01*
X49834D01*
X51500Y19168D01*
X54832Y17502D02*
X58165D01*
X56498D01*
Y27498D01*
X54832Y25832D01*
X-73666Y-50668D02*
X-75332Y-49002D01*
X-78664D01*
X-80331Y-50668D01*
Y-57332D01*
X-78664Y-58998D01*
X-75332D01*
X-73666Y-57332D01*
X-70334Y-50668D02*
X-68668Y-49002D01*
X-65335D01*
X-63669Y-50668D01*
Y-57332D01*
X-65335Y-58998D01*
X-68668D01*
X-70334Y-57332D01*
Y-50668D01*
X-197666Y100998D02*
X-200998D01*
X-199332D01*
Y92668D01*
X-200998Y91002D01*
X-202665D01*
X-204331Y92668D01*
X-194334Y99332D02*
X-192668Y100998D01*
X-189335D01*
X-187669Y99332D01*
Y92668D01*
X-189335Y91002D01*
X-192668D01*
X-194334Y92668D01*
Y99332D01*
D12*
X-92000Y154500D02*
Y160500D01*
D13*
X-202500Y-82500D02*
X-141208D01*
X-202500Y82500D02*
X-127500D01*
X-141208Y-82500D02*
X-127500D01*
X-97500Y-52500D01*
Y52500D01*
X-127500Y82500D02*
X-97500Y52500D01*
M02*
