%TF.GenerationSoftware,Altium Limited,Altium Designer,22.8.2 (66)*%
G04 Layer_Color=0*
%FSLAX45Y45*%
%MOMM*%
%TF.SameCoordinates,C69CFF7D-580E-4D1C-BBFF-10AAE48A081B*%
%TF.FilePolarity,Positive*%
%TF.FileFunction,Plated,1,2,PTH,Drill*%
%TF.Part,Single*%
G01*
G75*
%TA.AperFunction,ComponentDrill*%
%ADD57C,0.90000*%
%ADD58O,2.00000X0.90000*%
%ADD59C,2.90000*%
%TA.AperFunction,OtherDrill,Pad Free-1 (15.5mm,15.5mm)*%
%ADD60C,3.20000*%
%TA.AperFunction,OtherDrill,Pad Free-1 (-15.5mm,15.5mm)*%
%ADD61C,3.20000*%
%TA.AperFunction,OtherDrill,Pad Free-1 (15.5mm,-15.5mm)*%
%ADD62C,3.20000*%
%TA.AperFunction,OtherDrill,Pad Free-1 (-15.5mm,-15.5mm)*%
%ADD63C,3.20000*%
%TA.AperFunction,ComponentDrill*%
%ADD64C,0.90000*%
%TA.AperFunction,ViaDrill,NotFilled*%
%ADD65C,0.50000*%
%ADD66C,0.30000*%
D57*
X-921000Y1770000D02*
D03*
X-667000D02*
D03*
X-413000D02*
D03*
X-159000D02*
D03*
X95000D02*
D03*
X349000D02*
D03*
X603000D02*
D03*
X857000D02*
D03*
D58*
X-1900000Y675000D02*
D03*
Y-675000D02*
D03*
D59*
X-1300000Y360000D02*
D03*
Y-360000D02*
D03*
D60*
X1550000Y1550000D02*
D03*
D61*
X-1550000D02*
D03*
D62*
X1550000Y-1550000D02*
D03*
D63*
X-1550000D02*
D03*
D64*
X1930000Y353000D02*
D03*
Y99000D02*
D03*
Y-155000D02*
D03*
Y-409000D02*
D03*
D65*
X172667Y-1212775D02*
D03*
X71708Y-1361489D02*
D03*
X252667Y-1367775D02*
D03*
X-1233715Y-1063526D02*
D03*
X-1334674Y-1212241D02*
D03*
X-1153715Y-1218527D02*
D03*
X-1859412Y1244088D02*
D03*
X-1960370Y1095374D02*
D03*
X-1779411Y1089088D02*
D03*
X750000Y-1225000D02*
D03*
X649042Y-1373715D02*
D03*
X830000Y-1380001D02*
D03*
X1700000Y235000D02*
D03*
X1685000Y-250000D02*
D03*
X1580000Y-390000D02*
D03*
X-105000Y-1070000D02*
D03*
X1429612Y959247D02*
D03*
X-322173Y670471D02*
D03*
X-155000Y1140000D02*
D03*
X1639473Y-580627D02*
D03*
X1695000Y415000D02*
D03*
X-185000Y800000D02*
D03*
X660000Y-75000D02*
D03*
X-600000Y1150000D02*
D03*
X-750000Y1015000D02*
D03*
X-785000Y1200000D02*
D03*
X1904037Y1976155D02*
D03*
X1819037Y1861155D02*
D03*
X1979951Y1844141D02*
D03*
X-1217243Y1934950D02*
D03*
X-1302244Y1819950D02*
D03*
X-1141329Y1802935D02*
D03*
X-1248147Y1136603D02*
D03*
X-1333147Y1021603D02*
D03*
X-1172233Y1004588D02*
D03*
X-1965000Y-1645000D02*
D03*
X-1995000Y-1420000D02*
D03*
X-1830000Y-1795000D02*
D03*
X-1815000Y75000D02*
D03*
X-1900000Y-40000D02*
D03*
X-1739086Y-57015D02*
D03*
X1690000Y-895000D02*
D03*
X1605000Y-1010000D02*
D03*
X1765914Y-1027015D02*
D03*
X-735000Y-1415000D02*
D03*
X-820000Y-1530000D02*
D03*
X-659086Y-1547015D02*
D03*
X46059Y-1749076D02*
D03*
X-106762Y-1754736D02*
D03*
X-16202Y-1613235D02*
D03*
X900000Y-1860000D02*
D03*
X719041Y-1853714D02*
D03*
X820000Y-1705000D02*
D03*
X836926Y1205219D02*
D03*
X1700000Y725000D02*
D03*
X-745000Y590000D02*
D03*
X815000Y1040000D02*
D03*
X820000Y570000D02*
D03*
X255000Y805000D02*
D03*
X665000Y285000D02*
D03*
X-380000Y450000D02*
D03*
D66*
X1007500Y-212500D02*
D03*
Y227500D02*
D03*
X1117500D02*
D03*
X1227500D02*
D03*
X1007500Y117500D02*
D03*
X1117500D02*
D03*
X1227500D02*
D03*
X1007500Y7500D02*
D03*
X1117500D02*
D03*
X1227500D02*
D03*
X1007500Y-102500D02*
D03*
X1117500D02*
D03*
X1227500D02*
D03*
X1117500Y-212500D02*
D03*
X1227500D02*
D03*
%TF.MD5,329c211ec60c06a409e989be7ee3b9db*%
M02*
