%TF.GenerationSoftware,Altium Limited,Altium Designer,22.8.2 (66)*%
G04 Layer_Physical_Order=2*
G04 Layer_Color=16711680*
%FSLAX45Y45*%
%MOMM*%
%TF.SameCoordinates,C69CFF7D-580E-4D1C-BBFF-10AAE48A081B*%
%TF.FilePolarity,Positive*%
%TF.FileFunction,Copper,L2,Bot,Signal*%
%TF.Part,Single*%
G01*
G75*
%TA.AperFunction,SMDPad,CuDef*%
%ADD17R,1.40000X1.70000*%
%ADD19R,1.70000X1.00000*%
%TA.AperFunction,Conductor*%
%ADD20C,0.50800*%
%ADD21C,0.63500*%
%TA.AperFunction,ComponentPad*%
%ADD28C,1.50000*%
%ADD29R,1.50000X1.50000*%
%ADD30O,3.00000X1.90000*%
%ADD31C,5.20000*%
%TA.AperFunction,ViaPad*%
%ADD32C,5.00000*%
%TA.AperFunction,ComponentPad*%
%ADD33R,1.50000X1.50000*%
%TA.AperFunction,ViaPad*%
%ADD34C,1.00000*%
%ADD35C,0.60000*%
%TA.AperFunction,SMDPad,CuDef*%
%ADD36R,7.50000X15.00000*%
%ADD37R,1.87407X0.54213*%
G04:AMPARAMS|DCode=38|XSize=1.87407mm|YSize=0.54213mm|CornerRadius=0.27107mm|HoleSize=0mm|Usage=FLASHONLY|Rotation=180.000|XOffset=0mm|YOffset=0mm|HoleType=Round|Shape=RoundedRectangle|*
%AMROUNDEDRECTD38*
21,1,1.87407,0.00000,0,0,180.0*
21,1,1.33193,0.54213,0,0,180.0*
1,1,0.54213,-0.66597,0.00000*
1,1,0.54213,0.66597,0.00000*
1,1,0.54213,0.66597,0.00000*
1,1,0.54213,-0.66597,0.00000*
%
%ADD38ROUNDEDRECTD38*%
G36*
X2094609Y-2094609D02*
X-2094609D01*
Y2094609D01*
X2094609D01*
Y-2094609D01*
D02*
G37*
%LPC*%
G36*
X-909454Y1857700D02*
X-914650D01*
Y1776350D01*
X-833300D01*
Y1781546D01*
X-839277Y1803851D01*
X-850823Y1823849D01*
X-867151Y1840177D01*
X-887149Y1851723D01*
X-909454Y1857700D01*
D02*
G37*
G36*
X-927350D02*
X-932546D01*
X-954851Y1851723D01*
X-974849Y1840177D01*
X-991177Y1823849D01*
X-1002723Y1803851D01*
X-1008700Y1781546D01*
Y1776350D01*
X-927350D01*
Y1857700D01*
D02*
G37*
G36*
X944700D02*
X769300D01*
Y1682300D01*
X944700D01*
Y1857700D01*
D02*
G37*
G36*
X-833300Y1763650D02*
X-914650D01*
Y1682300D01*
X-909454D01*
X-887149Y1688277D01*
X-867151Y1699823D01*
X-850823Y1716151D01*
X-839277Y1736149D01*
X-833300Y1758454D01*
Y1763650D01*
D02*
G37*
G36*
X-927350D02*
X-1008700D01*
Y1758454D01*
X-1002723Y1736149D01*
X-991177Y1716151D01*
X-974849Y1699823D01*
X-954851Y1688277D01*
X-932546Y1682300D01*
X-927350D01*
Y1763650D01*
D02*
G37*
G36*
X360546Y1857700D02*
X337454D01*
X315149Y1851723D01*
X295151Y1840177D01*
X278823Y1823849D01*
X267277Y1803851D01*
X261300Y1781546D01*
Y1758454D01*
X267277Y1736149D01*
X278823Y1716151D01*
X295151Y1699823D01*
X310154Y1691161D01*
Y1635290D01*
X297454Y1631438D01*
X297047Y1632047D01*
X297046Y1632047D01*
X180151Y1748942D01*
X182700Y1758454D01*
Y1781546D01*
X176723Y1803851D01*
X165177Y1823849D01*
X148849Y1840177D01*
X128851Y1851723D01*
X106546Y1857700D01*
X83454D01*
X61149Y1851723D01*
X41151Y1840177D01*
X24823Y1823849D01*
X13277Y1803851D01*
X7300Y1781546D01*
Y1758454D01*
X13277Y1736149D01*
X24823Y1716151D01*
X41151Y1699823D01*
X61149Y1688277D01*
X83454Y1682300D01*
X106546D01*
X116058Y1684849D01*
X219679Y1581228D01*
Y1195000D01*
X223129Y1177656D01*
X232953Y1162953D01*
X374679Y1021227D01*
Y86356D01*
X350930Y62607D01*
X349170Y62736D01*
X337972Y67609D01*
X335700Y79032D01*
X326902Y92199D01*
X313735Y100997D01*
X298203Y104086D01*
X250872D01*
X248950Y105371D01*
X231607Y108821D01*
X174297D01*
X156953Y105371D01*
X150801Y101260D01*
X149478Y100997D01*
X136311Y92199D01*
X131093Y84389D01*
X-52047Y-98750D01*
X-61871Y-113453D01*
X-65321Y-130797D01*
Y-281928D01*
X-100693Y-317300D01*
X-202000D01*
Y-512700D01*
X-36600D01*
Y-381393D01*
X12046Y-332747D01*
X12047Y-332747D01*
X13900Y-329973D01*
X26600Y-333825D01*
Y-408650D01*
X102950D01*
Y-317300D01*
X34968D01*
X24361Y-305528D01*
X25321Y-300700D01*
X25321Y-300699D01*
Y-149569D01*
X112283Y-62607D01*
X114043Y-62736D01*
X125241Y-67609D01*
X127513Y-79032D01*
X136311Y-92199D01*
X149478Y-100997D01*
X165010Y-104086D01*
X212341D01*
X214263Y-105371D01*
X231607Y-108821D01*
X288917D01*
X306260Y-105371D01*
X312413Y-101260D01*
X313735Y-100997D01*
X326902Y-92199D01*
X332120Y-84390D01*
X452046Y35536D01*
X452047Y35537D01*
X461871Y50240D01*
X465321Y67583D01*
X465321Y67585D01*
Y1040000D01*
X461871Y1057344D01*
X452047Y1072047D01*
X310321Y1213773D01*
Y1577450D01*
X316922Y1581031D01*
X323021Y1582042D01*
X564154Y1340909D01*
Y360314D01*
X567111Y345448D01*
X575531Y332845D01*
X604820Y303556D01*
X602300Y297472D01*
Y272528D01*
X611846Y249484D01*
X629484Y231846D01*
X652528Y222300D01*
X677472D01*
X700517Y231846D01*
X718155Y249484D01*
X719600Y252973D01*
X732300Y250447D01*
Y31350D01*
X1113650D01*
Y787700D01*
X732300D01*
Y319553D01*
X719600Y317027D01*
X718155Y320517D01*
X700517Y338155D01*
X677472Y347700D01*
X670551D01*
X641847Y376404D01*
Y1357000D01*
X638890Y1371866D01*
X630469Y1384469D01*
X387847Y1627091D01*
Y1691161D01*
X402849Y1699823D01*
X419177Y1716151D01*
X430723Y1736149D01*
X436700Y1758454D01*
Y1781546D01*
X430723Y1803851D01*
X419177Y1823849D01*
X402849Y1840177D01*
X382851Y1851723D01*
X360546Y1857700D01*
D02*
G37*
G36*
X-401454D02*
X-424546D01*
X-446851Y1851723D01*
X-466849Y1840177D01*
X-483177Y1823849D01*
X-494723Y1803851D01*
X-500700Y1781546D01*
Y1758454D01*
X-496216Y1741721D01*
X-616420Y1621517D01*
X-628153Y1626377D01*
Y1691161D01*
X-613151Y1699823D01*
X-596823Y1716151D01*
X-585277Y1736149D01*
X-579300Y1758454D01*
Y1781546D01*
X-585277Y1803851D01*
X-596823Y1823849D01*
X-613151Y1840177D01*
X-633149Y1851723D01*
X-655454Y1857700D01*
X-678546D01*
X-700851Y1851723D01*
X-720849Y1840177D01*
X-737177Y1823849D01*
X-748723Y1803851D01*
X-754700Y1781546D01*
Y1758454D01*
X-748723Y1736149D01*
X-737177Y1716151D01*
X-720849Y1699823D01*
X-705846Y1691161D01*
Y1621893D01*
X-1012469Y1315271D01*
X-1020890Y1302668D01*
X-1023847Y1287802D01*
Y433661D01*
X-1036547Y431649D01*
X-1047279Y464681D01*
X-1066766Y502926D01*
X-1091996Y537652D01*
X-1122348Y568004D01*
X-1157074Y593234D01*
X-1195320Y612721D01*
X-1236143Y625985D01*
X-1278538Y632700D01*
X-1293650D01*
Y360000D01*
Y87300D01*
X-1278538D01*
X-1236143Y94015D01*
X-1195320Y107279D01*
X-1157074Y126766D01*
X-1122348Y151996D01*
X-1091996Y182348D01*
X-1066766Y217074D01*
X-1047279Y255320D01*
X-1036547Y288351D01*
X-1023847Y286340D01*
Y216316D01*
X-1020890Y201450D01*
X-1012469Y188847D01*
X-895753Y72131D01*
X-883150Y63711D01*
X-868284Y60753D01*
X-852700D01*
Y12300D01*
X-712237D01*
X-608969Y-90969D01*
X-596366Y-99389D01*
X-581500Y-102347D01*
X-306950D01*
X-298203Y-104086D01*
X-165010D01*
X-149478Y-100997D01*
X-136311Y-92199D01*
X-127513Y-79032D01*
X-124424Y-63500D01*
X-127513Y-47968D01*
X-136311Y-34801D01*
X-149478Y-26003D01*
X-165010Y-22914D01*
X-298203D01*
X-306950Y-24653D01*
X-565410D01*
X-590630Y567D01*
X-585769Y12300D01*
X-407300D01*
Y36153D01*
X-327806D01*
X-326902Y34801D01*
X-313735Y26003D01*
X-298203Y22914D01*
X-165010D01*
X-149478Y26003D01*
X-136311Y34801D01*
X-127513Y47968D01*
X-124424Y63500D01*
X-127513Y79032D01*
X-136311Y92199D01*
X-149478Y100997D01*
X-165010Y104086D01*
X-285580D01*
X-295761Y110889D01*
X-310627Y113846D01*
X-407300D01*
Y137700D01*
X-547763D01*
X-599663Y189600D01*
X-594402Y202300D01*
X-594335Y202300D01*
X-407300D01*
Y263607D01*
X-354937Y315970D01*
X-345113Y330673D01*
X-341663Y348016D01*
X-341663Y348018D01*
Y399666D01*
X-326846Y414484D01*
X-318480Y434679D01*
X-217000D01*
Y382300D01*
X-121393D01*
X102453Y158453D01*
X117156Y148629D01*
X134500Y145179D01*
X231607D01*
X248950Y148629D01*
X252039Y150693D01*
X338010D01*
Y230307D01*
X252039D01*
X248950Y232371D01*
X231607Y235821D01*
X153273D01*
X19493Y369600D01*
X24754Y382300D01*
X87950D01*
Y473650D01*
X11600D01*
Y395454D01*
X-1100Y390193D01*
X-50729Y439823D01*
Y441749D01*
X-50729Y441750D01*
X-51600Y446130D01*
Y577700D01*
X-217000D01*
Y525321D01*
X-340122D01*
X-340123Y525321D01*
X-357467Y521871D01*
X-371192Y512700D01*
X-392472D01*
X-415517Y503154D01*
X-423350Y495321D01*
X-586228D01*
X-682300Y591394D01*
Y602472D01*
X-691846Y625517D01*
X-709483Y643154D01*
X-732528Y652700D01*
X-757472D01*
X-780517Y643154D01*
X-798154Y625517D01*
X-807700Y602472D01*
Y577528D01*
X-798154Y554484D01*
X-780517Y536846D01*
X-757472Y527300D01*
X-746393D01*
X-637047Y417954D01*
X-637047Y417953D01*
X-622344Y408129D01*
X-605000Y404679D01*
X-604999Y404679D01*
X-432304D01*
Y366789D01*
X-471394Y327700D01*
X-602700D01*
Y310321D01*
X-657300D01*
Y327700D01*
X-852700D01*
Y245349D01*
X-864433Y240488D01*
X-881153Y257209D01*
Y1246909D01*
X-441279Y1686784D01*
X-424546Y1682300D01*
X-401454D01*
X-379149Y1688277D01*
X-359151Y1699823D01*
X-342823Y1716151D01*
X-331277Y1736149D01*
X-325300Y1758454D01*
Y1781546D01*
X-331277Y1803851D01*
X-342823Y1823849D01*
X-359151Y1840177D01*
X-379149Y1851723D01*
X-401454Y1857700D01*
D02*
G37*
G36*
X1570675Y1812700D02*
X1529325D01*
X1488484Y1806231D01*
X1449158Y1793454D01*
X1412315Y1774681D01*
X1378862Y1750376D01*
X1349624Y1721138D01*
X1325319Y1687685D01*
X1306546Y1650842D01*
X1293769Y1611516D01*
X1287300Y1570675D01*
Y1529325D01*
X1293769Y1488484D01*
X1306546Y1449158D01*
X1325319Y1412315D01*
X1349624Y1378862D01*
X1378862Y1349624D01*
X1412315Y1325319D01*
X1449158Y1306546D01*
X1488484Y1293769D01*
X1529325Y1287300D01*
X1570675D01*
X1611516Y1293769D01*
X1650842Y1306546D01*
X1687685Y1325319D01*
X1721138Y1349624D01*
X1750376Y1378862D01*
X1774681Y1412315D01*
X1793454Y1449158D01*
X1806231Y1488484D01*
X1812700Y1529325D01*
Y1570675D01*
X1806231Y1611516D01*
X1793454Y1650842D01*
X1774681Y1687685D01*
X1750376Y1721138D01*
X1721138Y1750376D01*
X1687685Y1774681D01*
X1650842Y1793454D01*
X1611516Y1806231D01*
X1570675Y1812700D01*
D02*
G37*
G36*
X-1529325D02*
X-1570675D01*
X-1611516Y1806231D01*
X-1650842Y1793454D01*
X-1687685Y1774681D01*
X-1721138Y1750376D01*
X-1750376Y1721138D01*
X-1774681Y1687685D01*
X-1793454Y1650842D01*
X-1806231Y1611516D01*
X-1812700Y1570675D01*
Y1529325D01*
X-1806231Y1488484D01*
X-1793454Y1449158D01*
X-1774681Y1412315D01*
X-1750376Y1378862D01*
X-1721138Y1349624D01*
X-1687685Y1325319D01*
X-1650842Y1306546D01*
X-1611516Y1293769D01*
X-1570675Y1287300D01*
X-1529325D01*
X-1488484Y1293769D01*
X-1449158Y1306546D01*
X-1412315Y1325319D01*
X-1378862Y1349624D01*
X-1349624Y1378862D01*
X-1325319Y1412315D01*
X-1306546Y1449158D01*
X-1293769Y1488484D01*
X-1287300Y1529325D01*
Y1570675D01*
X-1293769Y1611516D01*
X-1306546Y1650842D01*
X-1325319Y1687685D01*
X-1349624Y1721138D01*
X-1378862Y1750376D01*
X-1412315Y1774681D01*
X-1449158Y1793454D01*
X-1488484Y1806231D01*
X-1529325Y1812700D01*
D02*
G37*
G36*
X614546Y1857700D02*
X591454D01*
X569149Y1851723D01*
X549151Y1840177D01*
X532823Y1823849D01*
X521277Y1803851D01*
X515300Y1781546D01*
Y1758454D01*
X521277Y1736149D01*
X532823Y1716151D01*
X549151Y1699823D01*
X569149Y1688277D01*
X574230Y1686915D01*
Y1600449D01*
X577680Y1583105D01*
X587504Y1568402D01*
X791605Y1364301D01*
Y1248569D01*
X783772Y1240735D01*
X774226Y1217691D01*
Y1192747D01*
X783772Y1169702D01*
X801409Y1152064D01*
X824454Y1142519D01*
X849398D01*
X872443Y1152064D01*
X890080Y1169702D01*
X899626Y1192747D01*
Y1217691D01*
X890080Y1240735D01*
X882247Y1248569D01*
Y1383073D01*
X882247Y1383074D01*
X878797Y1400418D01*
X868973Y1415121D01*
X664872Y1619222D01*
Y1707845D01*
X673177Y1716151D01*
X684723Y1736149D01*
X690700Y1758454D01*
Y1781546D01*
X684723Y1803851D01*
X673177Y1823849D01*
X656849Y1840177D01*
X636851Y1851723D01*
X614546Y1857700D01*
D02*
G37*
G36*
X-147454D02*
X-170546D01*
X-192851Y1851723D01*
X-212849Y1840177D01*
X-229177Y1823849D01*
X-240723Y1803851D01*
X-246700Y1781546D01*
Y1758454D01*
X-240723Y1736149D01*
X-229177Y1716151D01*
X-212849Y1699823D01*
X-197846Y1691161D01*
Y1444000D01*
X-194889Y1429134D01*
X-186469Y1416531D01*
X16153Y1213909D01*
Y1005001D01*
X19110Y990135D01*
X27531Y977532D01*
X192300Y812763D01*
Y792528D01*
X201846Y769484D01*
X219484Y751846D01*
X242528Y742300D01*
X267472D01*
X290517Y751846D01*
X308155Y769484D01*
X317700Y792528D01*
Y817472D01*
X308155Y840517D01*
X290517Y858154D01*
X267472Y867700D01*
X247238D01*
X93846Y1021091D01*
Y1230000D01*
X90889Y1244866D01*
X82468Y1257469D01*
X-120153Y1460091D01*
Y1691161D01*
X-105151Y1699823D01*
X-88823Y1716151D01*
X-77277Y1736149D01*
X-71300Y1758454D01*
Y1781546D01*
X-77277Y1803851D01*
X-88823Y1823849D01*
X-105151Y1840177D01*
X-125149Y1851723D01*
X-147454Y1857700D01*
D02*
G37*
G36*
X-1845000Y783629D02*
X-1955000D01*
X-1983116Y779928D01*
X-2009315Y769076D01*
X-2031813Y751812D01*
X-2049076Y729315D01*
X-2059928Y703115D01*
X-2063630Y675000D01*
X-2059928Y646885D01*
X-2049076Y620685D01*
X-2031813Y598188D01*
X-2009315Y580924D01*
X-1983116Y570072D01*
X-1955000Y566371D01*
X-1845000D01*
X-1816885Y570072D01*
X-1790686Y580924D01*
X-1768188Y598188D01*
X-1750924Y620685D01*
X-1740072Y646885D01*
X-1736371Y675000D01*
X-1740072Y703115D01*
X-1750924Y729315D01*
X-1768188Y751812D01*
X-1790686Y769076D01*
X-1816885Y779928D01*
X-1845000Y783629D01*
D02*
G37*
G36*
X177000Y577700D02*
X100650D01*
Y486350D01*
X177000D01*
Y577700D01*
D02*
G37*
G36*
X87950D02*
X11600D01*
Y486350D01*
X87950D01*
Y577700D01*
D02*
G37*
G36*
X177000Y473650D02*
X100650D01*
Y382300D01*
X177000D01*
Y473650D01*
D02*
G37*
G36*
X-1306350Y632700D02*
X-1321462D01*
X-1363858Y625985D01*
X-1404681Y612721D01*
X-1442926Y593234D01*
X-1477652Y568004D01*
X-1508004Y537652D01*
X-1533234Y502926D01*
X-1552721Y464681D01*
X-1565985Y423857D01*
X-1572700Y381462D01*
Y366350D01*
X-1306350D01*
Y632700D01*
D02*
G37*
G36*
X1941546Y440700D02*
X1918454D01*
X1896149Y434723D01*
X1876151Y423177D01*
X1859823Y406849D01*
X1848277Y386851D01*
X1842300Y364546D01*
Y341454D01*
X1848277Y319149D01*
X1859823Y299151D01*
X1876151Y282823D01*
X1896149Y271277D01*
X1918454Y265300D01*
X1941546D01*
X1963851Y271277D01*
X1983849Y282823D01*
X2000177Y299151D01*
X2011723Y319149D01*
X2017700Y341454D01*
Y364546D01*
X2011723Y386851D01*
X2000177Y406849D01*
X1983849Y423177D01*
X1963851Y434723D01*
X1941546Y440700D01*
D02*
G37*
G36*
X-165010Y231086D02*
X-225257D01*
Y196850D01*
X-125687D01*
X-127513Y206032D01*
X-136311Y219199D01*
X-149478Y227997D01*
X-165010Y231086D01*
D02*
G37*
G36*
X-237957D02*
X-298203D01*
X-313735Y227997D01*
X-326902Y219199D01*
X-335700Y206032D01*
X-337526Y196850D01*
X-237957D01*
Y231086D01*
D02*
G37*
G36*
X-125687Y184150D02*
X-225257D01*
Y149914D01*
X-165010D01*
X-149478Y153003D01*
X-136311Y161801D01*
X-127513Y174968D01*
X-125687Y184150D01*
D02*
G37*
G36*
X-237957D02*
X-337526D01*
X-335700Y174968D01*
X-326902Y161801D01*
X-313735Y153003D01*
X-298203Y149914D01*
X-237957D01*
Y184150D01*
D02*
G37*
G36*
X-1306350Y353650D02*
X-1572700D01*
Y338538D01*
X-1565985Y296143D01*
X-1552721Y255320D01*
X-1533234Y217074D01*
X-1508004Y182348D01*
X-1477652Y151996D01*
X-1442926Y126766D01*
X-1404681Y107279D01*
X-1363858Y94015D01*
X-1321462Y87300D01*
X-1306350D01*
Y353650D01*
D02*
G37*
G36*
X1712472Y297700D02*
X1687528D01*
X1664483Y288154D01*
X1646846Y270517D01*
X1637300Y247472D01*
Y222528D01*
X1646846Y199483D01*
X1664483Y181846D01*
X1687528Y172300D01*
X1712472D01*
X1735516Y181846D01*
X1740410Y186740D01*
X1787323D01*
X1846784Y127279D01*
X1842300Y110546D01*
Y87454D01*
X1848277Y65149D01*
X1859823Y45151D01*
X1876151Y28823D01*
X1896149Y17277D01*
X1918454Y11300D01*
X1941546D01*
X1963851Y17277D01*
X1983849Y28823D01*
X2000177Y45151D01*
X2011723Y65149D01*
X2017700Y87454D01*
Y110546D01*
X2011723Y132851D01*
X2000177Y152849D01*
X1983849Y169177D01*
X1963851Y180723D01*
X1941546Y186700D01*
X1918454D01*
X1901721Y182216D01*
X1830883Y253055D01*
X1818280Y261475D01*
X1803414Y264433D01*
X1755674D01*
X1753154Y270517D01*
X1735516Y288154D01*
X1712472Y297700D01*
D02*
G37*
G36*
X298203Y-149914D02*
X237957D01*
Y-184150D01*
X337526D01*
X335700Y-174968D01*
X326902Y-161801D01*
X313735Y-153003D01*
X298203Y-149914D01*
D02*
G37*
G36*
X225257D02*
X165010D01*
X149478Y-153003D01*
X136311Y-161801D01*
X127513Y-174968D01*
X125687Y-184150D01*
X225257D01*
Y-149914D01*
D02*
G37*
G36*
X1941546Y-67300D02*
X1918454D01*
X1896149Y-73277D01*
X1876151Y-84823D01*
X1859823Y-101151D01*
X1848277Y-121149D01*
X1845726Y-130667D01*
X1778800D01*
X1763934Y-133624D01*
X1751331Y-142045D01*
X1703556Y-189820D01*
X1697472Y-187300D01*
X1672528D01*
X1649483Y-196846D01*
X1631846Y-214483D01*
X1622300Y-237528D01*
Y-262472D01*
X1631846Y-285517D01*
X1649483Y-303154D01*
X1672528Y-312700D01*
X1697472D01*
X1720516Y-303154D01*
X1738154Y-285517D01*
X1747700Y-262472D01*
Y-255551D01*
X1794890Y-208360D01*
X1859541D01*
X1859823Y-208849D01*
X1876151Y-225177D01*
X1896149Y-236723D01*
X1918454Y-242700D01*
X1941546D01*
X1963851Y-236723D01*
X1983849Y-225177D01*
X2000177Y-208849D01*
X2011723Y-188851D01*
X2017700Y-166546D01*
Y-143454D01*
X2011723Y-121149D01*
X2000177Y-101151D01*
X1983849Y-84823D01*
X1963851Y-73277D01*
X1941546Y-67300D01*
D02*
G37*
G36*
X337526Y-196850D02*
X237957D01*
Y-231086D01*
X298203D01*
X313735Y-227997D01*
X326902Y-219199D01*
X335700Y-206032D01*
X337526Y-196850D01*
D02*
G37*
G36*
X225257D02*
X125687D01*
X127513Y-206032D01*
X136311Y-219199D01*
X149478Y-227997D01*
X165010Y-231086D01*
X225257D01*
Y-196850D01*
D02*
G37*
G36*
X-165010Y-149914D02*
X-298203D01*
X-313735Y-153003D01*
X-326902Y-161801D01*
X-335700Y-174968D01*
X-338790Y-190500D01*
X-335700Y-206032D01*
X-326902Y-219199D01*
X-313735Y-227997D01*
X-298203Y-231086D01*
X-165010D01*
X-149478Y-227997D01*
X-136311Y-219199D01*
X-127513Y-206032D01*
X-124424Y-190500D01*
X-127513Y-174968D01*
X-136311Y-161801D01*
X-149478Y-153003D01*
X-165010Y-149914D01*
D02*
G37*
G36*
X192000Y-317300D02*
X115650D01*
Y-408650D01*
X192000D01*
Y-317300D01*
D02*
G37*
G36*
X1507700Y787700D02*
X1126350D01*
Y25000D01*
Y-737700D01*
X1507700D01*
Y-412483D01*
X1520400Y-409957D01*
X1526846Y-425517D01*
X1544483Y-443155D01*
X1567528Y-452700D01*
X1592472D01*
X1615516Y-443155D01*
X1633154Y-425517D01*
X1642700Y-402472D01*
Y-377528D01*
X1633154Y-354484D01*
X1615516Y-336846D01*
X1592472Y-327300D01*
X1591270D01*
X1590871Y-326901D01*
Y246777D01*
X1696393Y352300D01*
X1707472D01*
X1730516Y361846D01*
X1748154Y379483D01*
X1757700Y402528D01*
Y427472D01*
X1748154Y450516D01*
X1730516Y468154D01*
X1707472Y477700D01*
X1682528D01*
X1659483Y468154D01*
X1641846Y450516D01*
X1632300Y427472D01*
Y416393D01*
X1520400Y304493D01*
X1507700Y309754D01*
Y787700D01*
D02*
G37*
G36*
X2017700Y-321300D02*
X1842300D01*
Y-496700D01*
X2017700D01*
Y-321300D01*
D02*
G37*
G36*
X192000Y-421350D02*
X115650D01*
Y-512700D01*
X192000D01*
Y-421350D01*
D02*
G37*
G36*
X102950D02*
X26600D01*
Y-512700D01*
X102950D01*
Y-421350D01*
D02*
G37*
G36*
X-1278538Y-87300D02*
X-1321462D01*
X-1363858Y-94015D01*
X-1404681Y-107279D01*
X-1442926Y-126766D01*
X-1477652Y-151996D01*
X-1508004Y-182348D01*
X-1533234Y-217074D01*
X-1552721Y-255320D01*
X-1565985Y-296143D01*
X-1572700Y-338538D01*
Y-381462D01*
X-1565985Y-423857D01*
X-1552721Y-464681D01*
X-1533234Y-502926D01*
X-1508004Y-537652D01*
X-1477652Y-568004D01*
X-1442926Y-593234D01*
X-1404681Y-612721D01*
X-1363858Y-625985D01*
X-1321462Y-632700D01*
X-1278538D01*
X-1236143Y-625985D01*
X-1195320Y-612721D01*
X-1157074Y-593234D01*
X-1122348Y-568004D01*
X-1091996Y-537652D01*
X-1066766Y-502926D01*
X-1047279Y-464681D01*
X-1034015Y-423857D01*
X-1027300Y-381462D01*
Y-338538D01*
X-1034015Y-296143D01*
X-1047279Y-255320D01*
X-1066766Y-217074D01*
X-1091996Y-182348D01*
X-1122348Y-151996D01*
X-1157074Y-126766D01*
X-1195320Y-107279D01*
X-1236143Y-94015D01*
X-1278538Y-87300D01*
D02*
G37*
G36*
X1113650Y18650D02*
X732300D01*
Y-737700D01*
X1113650D01*
Y18650D01*
D02*
G37*
G36*
X-1845000Y-566371D02*
X-1955000D01*
X-1983116Y-570072D01*
X-2009315Y-580924D01*
X-2031813Y-598188D01*
X-2049076Y-620685D01*
X-2059928Y-646885D01*
X-2063630Y-675000D01*
X-2059928Y-703115D01*
X-2049076Y-729315D01*
X-2031813Y-751812D01*
X-2009315Y-769076D01*
X-1983116Y-779928D01*
X-1955000Y-783629D01*
X-1845000D01*
X-1816885Y-779928D01*
X-1790686Y-769076D01*
X-1768188Y-751812D01*
X-1750924Y-729315D01*
X-1740072Y-703115D01*
X-1736371Y-675000D01*
X-1740072Y-646885D01*
X-1750924Y-620685D01*
X-1768188Y-598188D01*
X-1790686Y-580924D01*
X-1816885Y-570072D01*
X-1845000Y-566371D01*
D02*
G37*
G36*
X1570675Y-1287300D02*
X1529325D01*
X1488484Y-1293769D01*
X1449158Y-1306546D01*
X1412315Y-1325319D01*
X1378862Y-1349624D01*
X1349624Y-1378862D01*
X1325319Y-1412315D01*
X1306546Y-1449158D01*
X1293769Y-1488484D01*
X1287300Y-1529325D01*
Y-1570675D01*
X1293769Y-1611516D01*
X1306546Y-1650842D01*
X1325319Y-1687685D01*
X1349624Y-1721138D01*
X1378862Y-1750376D01*
X1412315Y-1774681D01*
X1449158Y-1793454D01*
X1488484Y-1806231D01*
X1529325Y-1812700D01*
X1570675D01*
X1611516Y-1806231D01*
X1650842Y-1793454D01*
X1687685Y-1774681D01*
X1721138Y-1750376D01*
X1750376Y-1721138D01*
X1774681Y-1687685D01*
X1793454Y-1650842D01*
X1806231Y-1611516D01*
X1812700Y-1570675D01*
Y-1529325D01*
X1806231Y-1488484D01*
X1793454Y-1449158D01*
X1774681Y-1412315D01*
X1750376Y-1378862D01*
X1721138Y-1349624D01*
X1687685Y-1325319D01*
X1650842Y-1306546D01*
X1611516Y-1293769D01*
X1570675Y-1287300D01*
D02*
G37*
G36*
X-1529325D02*
X-1570675D01*
X-1611516Y-1293769D01*
X-1650842Y-1306546D01*
X-1687685Y-1325319D01*
X-1721138Y-1349624D01*
X-1750376Y-1378862D01*
X-1774681Y-1412315D01*
X-1793454Y-1449158D01*
X-1806231Y-1488484D01*
X-1812700Y-1529325D01*
Y-1570675D01*
X-1806231Y-1611516D01*
X-1793454Y-1650842D01*
X-1774681Y-1687685D01*
X-1750376Y-1721138D01*
X-1721138Y-1750376D01*
X-1687685Y-1774681D01*
X-1650842Y-1793454D01*
X-1611516Y-1806231D01*
X-1570675Y-1812700D01*
X-1529325D01*
X-1488484Y-1806231D01*
X-1449158Y-1793454D01*
X-1412315Y-1774681D01*
X-1378862Y-1750376D01*
X-1349624Y-1721138D01*
X-1325319Y-1687685D01*
X-1306546Y-1650842D01*
X-1293769Y-1611516D01*
X-1287300Y-1570675D01*
Y-1529325D01*
X-1293769Y-1488484D01*
X-1306546Y-1449158D01*
X-1325319Y-1412315D01*
X-1349624Y-1378862D01*
X-1378862Y-1349624D01*
X-1412315Y-1325319D01*
X-1449158Y-1306546D01*
X-1488484Y-1293769D01*
X-1529325Y-1287300D01*
D02*
G37*
%LPD*%
D17*
X94300Y480000D02*
D03*
X-134300D02*
D03*
X109300Y-415000D02*
D03*
X-119300D02*
D03*
D19*
X-505000Y265000D02*
D03*
Y75000D02*
D03*
X-755000Y265000D02*
D03*
Y75000D02*
D03*
D20*
X1700000Y235000D02*
X1709414Y225586D01*
X1803414D02*
X1930000Y99000D01*
X1709414Y225586D02*
X1803414D01*
X1685000Y-250000D02*
X1698313D01*
X1778800Y-169514D02*
X1915486D01*
X1930000Y-155000D01*
X1698313Y-250000D02*
X1778800Y-169514D01*
X603000Y360314D02*
Y1357000D01*
Y360314D02*
X665000Y298314D01*
Y285000D02*
Y298314D01*
X349000Y1611000D02*
X603000Y1357000D01*
X349000Y1611000D02*
Y1770000D01*
X-159000Y1444000D02*
X55000Y1230000D01*
X-159000Y1444000D02*
Y1770000D01*
X55000Y1005001D02*
Y1230000D01*
Y1005001D02*
X255000Y805000D01*
X-920000Y241118D02*
Y1263000D01*
Y241118D02*
X-855782Y176900D01*
X-920000Y1263000D02*
X-413000Y1770000D01*
X-985000Y216316D02*
Y1287802D01*
Y216316D02*
X-868284Y99600D01*
X-985000Y1287802D02*
X-667000Y1605802D01*
X-868284Y99600D02*
X-779600D01*
X-755000Y75000D01*
X-667000Y1605802D02*
Y1770000D01*
X-855782Y176900D02*
X-641900D01*
X-540000Y75000D01*
X-505000D01*
X-310627D02*
X-299127Y63500D01*
X-231607D01*
X-505000Y75000D02*
X-310627D01*
X-720000D02*
X-581500Y-63500D01*
X-231607D01*
X-755000Y75000D02*
X-720000D01*
D21*
X1580000Y-390000D02*
Y-380123D01*
X1545550Y-345673D02*
X1580000Y-380123D01*
X1545550Y-345673D02*
Y265550D01*
X1695000Y415000D01*
X603000Y1770000D02*
X619551Y1753449D01*
Y1600449D02*
Y1753449D01*
Y1600449D02*
X836926Y1383074D01*
Y1205219D02*
Y1383074D01*
X-745000Y590000D02*
X-605000Y450000D01*
X-380000D01*
X-755000Y265000D02*
X-505000D01*
X-470000D02*
X-386984Y348016D01*
Y443016D01*
X-340123Y480000D02*
X-134300D01*
X-96050Y421050D02*
X134500Y190500D01*
X231607D01*
X265000Y1195000D02*
Y1600000D01*
X95000Y1770000D02*
X265000Y1600000D01*
Y1195000D02*
X420000Y1040000D01*
Y67583D02*
Y1040000D01*
X288917Y-63500D02*
X420000Y67583D01*
X231607Y-63500D02*
X288917D01*
X-20000Y-130797D02*
X174297Y63500D01*
X231607D01*
X-20000Y-300700D02*
Y-130797D01*
X-119300Y-415000D02*
Y-400000D01*
X-20000Y-300700D01*
X-96050Y421050D02*
Y441750D01*
X-134300Y480000D02*
X-96050Y441750D01*
X-370123Y450000D02*
X-340123Y480000D01*
X-380000Y450000D02*
X-370123D01*
X-386984Y443016D02*
X-380000Y450000D01*
X-505000Y265000D02*
X-470000D01*
D28*
X-921000Y1770000D02*
D03*
X-667000D02*
D03*
X-413000D02*
D03*
X-159000D02*
D03*
X95000D02*
D03*
X349000D02*
D03*
X603000D02*
D03*
X1930000Y353000D02*
D03*
Y99000D02*
D03*
Y-155000D02*
D03*
D29*
X857000Y1770000D02*
D03*
D30*
X-1900000Y675000D02*
D03*
Y-675000D02*
D03*
D31*
X-1300000Y360000D02*
D03*
Y-360000D02*
D03*
D32*
X1550000Y1550000D02*
D03*
X-1550000D02*
D03*
X1550000Y-1550000D02*
D03*
X-1550000D02*
D03*
D33*
X1930000Y-409000D02*
D03*
D34*
X172667Y-1212775D02*
D03*
X71708Y-1361489D02*
D03*
X252667Y-1367775D02*
D03*
X-1233715Y-1063526D02*
D03*
X-1334674Y-1212241D02*
D03*
X-1153715Y-1218527D02*
D03*
X-1859412Y1244088D02*
D03*
X-1960370Y1095374D02*
D03*
X-1779411Y1089088D02*
D03*
X750000Y-1225000D02*
D03*
X649042Y-1373715D02*
D03*
X830000Y-1380001D02*
D03*
X1700000Y235000D02*
D03*
X1685000Y-250000D02*
D03*
X1580000Y-390000D02*
D03*
X-105000Y-1070000D02*
D03*
X1429612Y959247D02*
D03*
X-322173Y670471D02*
D03*
X-155000Y1140000D02*
D03*
X1639473Y-580627D02*
D03*
X1695000Y415000D02*
D03*
X-185000Y800000D02*
D03*
X660000Y-75000D02*
D03*
X-600000Y1150000D02*
D03*
X-750000Y1015000D02*
D03*
X-785000Y1200000D02*
D03*
X1904037Y1976155D02*
D03*
X1819037Y1861155D02*
D03*
X1979951Y1844141D02*
D03*
X-1217243Y1934950D02*
D03*
X-1302244Y1819950D02*
D03*
X-1141329Y1802935D02*
D03*
X-1248147Y1136603D02*
D03*
X-1333147Y1021603D02*
D03*
X-1172233Y1004588D02*
D03*
X-1965000Y-1645000D02*
D03*
X-1995000Y-1420000D02*
D03*
X-1830000Y-1795000D02*
D03*
X-1815000Y75000D02*
D03*
X-1900000Y-40000D02*
D03*
X-1739086Y-57015D02*
D03*
X1690000Y-895000D02*
D03*
X1605000Y-1010000D02*
D03*
X1765914Y-1027015D02*
D03*
X-735000Y-1415000D02*
D03*
X-820000Y-1530000D02*
D03*
X-659086Y-1547015D02*
D03*
X46059Y-1749076D02*
D03*
X-106762Y-1754736D02*
D03*
X-16202Y-1613235D02*
D03*
X900000Y-1860000D02*
D03*
X719041Y-1853714D02*
D03*
X820000Y-1705000D02*
D03*
X836926Y1205219D02*
D03*
X1700000Y725000D02*
D03*
X-745000Y590000D02*
D03*
X815000Y1040000D02*
D03*
X820000Y570000D02*
D03*
X255000Y805000D02*
D03*
X665000Y285000D02*
D03*
X-380000Y450000D02*
D03*
D35*
X1007500Y-212500D02*
D03*
Y227500D02*
D03*
X1117500D02*
D03*
X1227500D02*
D03*
X1007500Y117500D02*
D03*
X1117500D02*
D03*
X1227500D02*
D03*
X1007500Y7500D02*
D03*
X1117500D02*
D03*
X1227500D02*
D03*
X1007500Y-102500D02*
D03*
X1117500D02*
D03*
X1227500D02*
D03*
X1117500Y-212500D02*
D03*
X1227500D02*
D03*
D36*
X1120000Y25000D02*
D03*
D37*
X231607Y190500D02*
D03*
D38*
Y63500D02*
D03*
Y-63500D02*
D03*
Y-190500D02*
D03*
X-231607D02*
D03*
Y-63500D02*
D03*
Y63500D02*
D03*
Y190500D02*
D03*
%TF.MD5,388cc7859adc554bd4fc508a11a6689a*%
M02*
