%TF.GenerationSoftware,Altium Limited,Altium Designer,22.8.2 (66)*%
G04 Layer_Color=255*
%FSLAX45Y45*%
%MOMM*%
%TF.SameCoordinates,C69CFF7D-580E-4D1C-BBFF-10AAE48A081B*%
%TF.FilePolarity,Positive*%
%TF.FileFunction,Pads,Bot*%
%TF.Part,Single*%
G01*
G75*
%TA.AperFunction,SMDPad,CuDef*%
%ADD17R,1.40000X1.70000*%
%ADD19R,1.70000X1.00000*%
%TA.AperFunction,ComponentPad*%
%ADD28C,1.50000*%
%ADD29R,1.50000X1.50000*%
%ADD30O,3.00000X1.90000*%
%ADD31C,5.20000*%
%TA.AperFunction,ViaPad*%
%ADD32C,5.00000*%
%TA.AperFunction,ComponentPad*%
%ADD33R,1.50000X1.50000*%
%TA.AperFunction,SMDPad,CuDef*%
%ADD36R,7.50000X15.00000*%
%ADD37R,1.87407X0.54213*%
G04:AMPARAMS|DCode=38|XSize=1.87407mm|YSize=0.54213mm|CornerRadius=0.27107mm|HoleSize=0mm|Usage=FLASHONLY|Rotation=180.000|XOffset=0mm|YOffset=0mm|HoleType=Round|Shape=RoundedRectangle|*
%AMROUNDEDRECTD38*
21,1,1.87407,0.00000,0,0,180.0*
21,1,1.33193,0.54213,0,0,180.0*
1,1,0.54213,-0.66597,0.00000*
1,1,0.54213,0.66597,0.00000*
1,1,0.54213,0.66597,0.00000*
1,1,0.54213,-0.66597,0.00000*
%
%ADD38ROUNDEDRECTD38*%
D17*
X94300Y480000D02*
D03*
X-134300D02*
D03*
X109300Y-415000D02*
D03*
X-119300D02*
D03*
D19*
X-505000Y265000D02*
D03*
Y75000D02*
D03*
X-755000Y265000D02*
D03*
Y75000D02*
D03*
D28*
X-921000Y1770000D02*
D03*
X-667000D02*
D03*
X-413000D02*
D03*
X-159000D02*
D03*
X95000D02*
D03*
X349000D02*
D03*
X603000D02*
D03*
X1930000Y353000D02*
D03*
Y99000D02*
D03*
Y-155000D02*
D03*
D29*
X857000Y1770000D02*
D03*
D30*
X-1900000Y675000D02*
D03*
Y-675000D02*
D03*
D31*
X-1300000Y360000D02*
D03*
Y-360000D02*
D03*
D32*
X1550000Y1550000D02*
D03*
X-1550000D02*
D03*
X1550000Y-1550000D02*
D03*
X-1550000D02*
D03*
D33*
X1930000Y-409000D02*
D03*
D36*
X1120000Y25000D02*
D03*
D37*
X231607Y190500D02*
D03*
D38*
Y63500D02*
D03*
Y-63500D02*
D03*
Y-190500D02*
D03*
X-231607D02*
D03*
Y-63500D02*
D03*
Y63500D02*
D03*
Y190500D02*
D03*
%TF.MD5,b3d8e1e70fe50f022b0dfbcebe0db982*%
M02*
