%TF.GenerationSoftware,Altium Limited,Altium Designer,22.8.2 (66)*%
G04 Layer_Color=8388736*
%FSLAX45Y45*%
%MOMM*%
%TF.SameCoordinates,C69CFF7D-580E-4D1C-BBFF-10AAE48A081B*%
%TF.FilePolarity,Negative*%
%TF.FileFunction,Soldermask,Top*%
%TF.Part,Single*%
G01*
G75*
%TA.AperFunction,SMDPad,CuDef*%
%ADD10R,1.20000X1.60000*%
%ADD11R,3.30000X1.60000*%
%ADD40R,1.85000X1.15000*%
%ADD41R,1.55000X1.85000*%
%TA.AperFunction,ComponentPad*%
%ADD42C,1.65000*%
%ADD43R,1.65000X1.65000*%
%ADD44O,3.15000X2.05000*%
%ADD45C,5.35000*%
%TA.AperFunction,ViaPad*%
%ADD46C,5.15000*%
%TA.AperFunction,ComponentPad*%
%ADD47R,1.65000X1.65000*%
%TA.AperFunction,ViaPad*%
%ADD48C,1.15000*%
%ADD49C,0.75000*%
%TA.AperFunction,SMDPad,CuDef*%
%ADD50R,1.85000X1.55000*%
G04:AMPARAMS|DCode=51|XSize=0.5mm|YSize=1.4mm|CornerRadius=0.12575mm|HoleSize=0mm|Usage=FLASHONLY|Rotation=270.000|XOffset=0mm|YOffset=0mm|HoleType=Round|Shape=RoundedRectangle|*
%AMROUNDEDRECTD51*
21,1,0.50000,1.14850,0,0,270.0*
21,1,0.24850,1.40000,0,0,270.0*
1,1,0.25150,-0.57425,-0.12425*
1,1,0.25150,-0.57425,0.12425*
1,1,0.25150,0.57425,0.12425*
1,1,0.25150,0.57425,-0.12425*
%
%ADD51ROUNDEDRECTD51*%
%ADD52R,3.65000X1.75000*%
G04:AMPARAMS|DCode=53|XSize=3.25mm|YSize=5.33mm|CornerRadius=0.1215mm|HoleSize=0mm|Usage=FLASHONLY|Rotation=180.000|XOffset=0mm|YOffset=0mm|HoleType=Round|Shape=RoundedRectangle|*
%AMROUNDEDRECTD53*
21,1,3.25000,5.08700,0,0,180.0*
21,1,3.00700,5.33000,0,0,180.0*
1,1,0.24300,-1.50350,2.54350*
1,1,0.24300,1.50350,2.54350*
1,1,0.24300,1.50350,-2.54350*
1,1,0.24300,-1.50350,-2.54350*
%
%ADD53ROUNDEDRECTD53*%
%ADD54R,1.20000X0.75000*%
%ADD55R,1.15000X1.85000*%
D10*
X210000Y270000D02*
D03*
X-20000D02*
D03*
X-250000D02*
D03*
D11*
X-20000Y-370000D02*
D03*
D40*
X290000Y-700000D02*
D03*
Y-890000D02*
D03*
D41*
X-744300Y205000D02*
D03*
X-515700D02*
D03*
X-744300Y-260000D02*
D03*
X-515700D02*
D03*
X104300Y630000D02*
D03*
X-124300D02*
D03*
X1035700Y-675000D02*
D03*
X1264300D02*
D03*
D42*
X-921000Y1770000D02*
D03*
X-667000D02*
D03*
X-413000D02*
D03*
X-159000D02*
D03*
X95000D02*
D03*
X349000D02*
D03*
X603000D02*
D03*
X1930000Y353000D02*
D03*
Y99000D02*
D03*
Y-155000D02*
D03*
D43*
X857000Y1770000D02*
D03*
D44*
X-1900000Y675000D02*
D03*
Y-675000D02*
D03*
D45*
X-1300000Y360000D02*
D03*
Y-360000D02*
D03*
D46*
X1550000Y1550000D02*
D03*
X-1550000D02*
D03*
X1550000Y-1550000D02*
D03*
X-1550000D02*
D03*
D47*
X1930000Y-409000D02*
D03*
D48*
X172667Y-1212775D02*
D03*
X71708Y-1361489D02*
D03*
X252667Y-1367775D02*
D03*
X-1233715Y-1063526D02*
D03*
X-1334674Y-1212241D02*
D03*
X-1153715Y-1218527D02*
D03*
X-1859412Y1244088D02*
D03*
X-1960370Y1095374D02*
D03*
X-1779411Y1089088D02*
D03*
X750000Y-1225000D02*
D03*
X649042Y-1373715D02*
D03*
X830000Y-1380001D02*
D03*
X1700000Y235000D02*
D03*
X1685000Y-250000D02*
D03*
X1580000Y-390000D02*
D03*
X-105000Y-1070000D02*
D03*
X1429612Y959247D02*
D03*
X-322173Y670471D02*
D03*
X-155000Y1140000D02*
D03*
X1639473Y-580627D02*
D03*
X1695000Y415000D02*
D03*
X-185000Y800000D02*
D03*
X660000Y-75000D02*
D03*
X-600000Y1150000D02*
D03*
X-750000Y1015000D02*
D03*
X-785000Y1200000D02*
D03*
X1904037Y1976155D02*
D03*
X1819037Y1861155D02*
D03*
X1979951Y1844141D02*
D03*
X-1217243Y1934950D02*
D03*
X-1302244Y1819950D02*
D03*
X-1141329Y1802935D02*
D03*
X-1248147Y1136603D02*
D03*
X-1333147Y1021603D02*
D03*
X-1172233Y1004588D02*
D03*
X-1965000Y-1645000D02*
D03*
X-1995000Y-1420000D02*
D03*
X-1830000Y-1795000D02*
D03*
X-1815000Y75000D02*
D03*
X-1900000Y-40000D02*
D03*
X-1739086Y-57015D02*
D03*
X1690000Y-895000D02*
D03*
X1605000Y-1010000D02*
D03*
X1765914Y-1027015D02*
D03*
X-735000Y-1415000D02*
D03*
X-820000Y-1530000D02*
D03*
X-659086Y-1547015D02*
D03*
X46059Y-1749076D02*
D03*
X-106762Y-1754736D02*
D03*
X-16202Y-1613235D02*
D03*
X900000Y-1860000D02*
D03*
X719041Y-1853714D02*
D03*
X820000Y-1705000D02*
D03*
X836926Y1205219D02*
D03*
X1700000Y725000D02*
D03*
X-745000Y590000D02*
D03*
X815000Y1040000D02*
D03*
X820000Y570000D02*
D03*
X255000Y805000D02*
D03*
X665000Y285000D02*
D03*
X-380000Y450000D02*
D03*
D49*
X1007500Y-212500D02*
D03*
Y227500D02*
D03*
X1117500D02*
D03*
X1227500D02*
D03*
X1007500Y117500D02*
D03*
X1117500D02*
D03*
X1227500D02*
D03*
X1007500Y7500D02*
D03*
X1117500D02*
D03*
X1227500D02*
D03*
X1007500Y-102500D02*
D03*
X1117500D02*
D03*
X1227500D02*
D03*
X1117500Y-212500D02*
D03*
X1227500D02*
D03*
D50*
X1700000Y880700D02*
D03*
Y1109300D02*
D03*
X505000Y704300D02*
D03*
Y475700D02*
D03*
X580000Y-899300D02*
D03*
Y-670700D02*
D03*
X510000Y24300D02*
D03*
Y-204300D02*
D03*
D51*
X830000Y-25000D02*
D03*
Y430000D02*
D03*
Y365000D02*
D03*
Y300000D02*
D03*
Y235000D02*
D03*
Y170000D02*
D03*
Y105000D02*
D03*
Y40000D02*
D03*
Y-90000D02*
D03*
Y-155000D02*
D03*
Y-220000D02*
D03*
Y-285000D02*
D03*
Y-350000D02*
D03*
Y-415000D02*
D03*
X1405000Y430000D02*
D03*
Y365000D02*
D03*
Y300000D02*
D03*
Y235000D02*
D03*
Y170000D02*
D03*
Y105000D02*
D03*
Y40000D02*
D03*
Y-25000D02*
D03*
Y-90000D02*
D03*
Y-155000D02*
D03*
Y-220000D02*
D03*
Y-285000D02*
D03*
Y-350000D02*
D03*
Y-415000D02*
D03*
D52*
X-165000Y-920000D02*
D03*
X-725000D02*
D03*
D53*
X1117500Y7500D02*
D03*
D54*
X1237500Y1130000D02*
D03*
Y940000D02*
D03*
X972500D02*
D03*
Y1035000D02*
D03*
Y1130000D02*
D03*
D55*
X1205000Y695000D02*
D03*
X1015000D02*
D03*
%TF.MD5,0b686762299e790a0ad2b37c0a7b34b0*%
M02*
